<svg width="106" height="21" viewBox="0 0 106 21" fill="none" xmlns="http://www.w3.org/2000/svg">
<path d="M16.9353 0.825204V0.426831H10.4474V0.825204C12.0932 1.02439 12.618 1.53659 12.618 2.9309V9.81707H4.31731V2.9309C4.31731 1.53659 4.81822 1.02439 6.46404 0.825204V0.426831H0V0.825204C1.64583 1.02439 2.14673 1.53659 2.14673 2.9309V18.0691C2.14673 19.4634 1.64583 19.9756 0 20.1748V20.5732H6.46404V20.1748C4.81822 19.9756 4.31731 19.4634 4.31731 18.0691V10.6138H12.618V18.0691C12.618 19.4634 12.0932 19.9756 10.4474 20.1748V20.5732H16.9353V20.1748C15.2895 19.9756 14.7647 19.4634 14.7647 18.0691V2.9309C14.7647 1.53659 15.2895 1.02439 16.9353 0.825204Z" fill="#EFECE4"/>
<path d="M21.2359 21C22.834 21 24.1936 19.748 24.8853 17.4715V18.5528C24.8853 20.2033 25.8394 21 26.7458 21C27.2705 21 28.2008 20.6585 28.821 18.8943L28.5347 18.752C28.2247 19.4065 27.8907 19.6911 27.5806 19.6911C27.1513 19.6911 26.8651 19.2642 26.8651 18.5528V11.0122C26.8651 7.85366 25.2669 5.89024 22.667 5.89024C19.4231 5.89024 17.9919 8.28049 17.9681 10.0163C17.9681 11.1829 18.6359 11.5528 19.2561 11.3537C19.757 11.1829 20.0909 10.6423 19.8763 9.58943C19.6139 8.3374 20.2579 6.68699 22.1661 6.68699C23.8596 6.68699 24.8853 8.30894 24.8853 10.8699V12.1789L22.8817 12.4065C19.4708 12.8049 17.9681 14.4268 17.9681 17.3008C17.9681 19.4919 19.4231 21 21.2359 21ZM20.0194 16.6179C20.0194 14.6829 20.9973 13.5447 23.0486 13.2317L24.8853 12.9472V16.7317C24.2651 18.3537 23.3587 19.378 22.2377 19.378C20.9973 19.378 20.0194 18.2114 20.0194 16.6179Z" fill="#EFECE4"/>
<path d="M35.6527 5.89024C34.3169 5.89024 33.0289 7.17073 32.5518 9.61789V5.89024H32.2179L28.9263 7.22764V7.62602C30.1189 7.36992 30.5721 7.65447 30.5721 9.19106V18.3821C30.5721 19.4919 30.1666 19.9756 28.9263 20.1748V20.5732H34.8894V20.1748C33.2913 19.9756 32.5518 19.6911 32.5518 18.3821V11.7805C32.5518 9.47561 33.6252 7.73984 34.8417 7.73984C35.7481 7.73984 35.7481 8.67886 36.6068 8.67886C37.1315 8.67886 37.5132 8.13821 37.5132 7.42683C37.5132 6.4878 36.7976 5.89024 35.6527 5.89024Z" fill="#EFECE4"/>
<path d="M42.1067 21C43.9433 21 45.3506 19.5203 45.7561 17.4431V18.7805C45.7561 20.061 46.5671 21 47.6166 21C48.1413 21 49.0477 20.6585 49.6918 18.8943L49.4055 18.752C49.0954 19.4065 48.7615 19.6911 48.4514 19.6911C48.0221 19.6911 47.7359 19.2642 47.7359 18.5528V0H47.4019L44.0864 1.3374V1.73577C45.279 1.50813 45.7561 1.79268 45.7561 3.30081V7.36992C45.0644 6.45935 43.9194 5.89024 42.7268 5.89024C39.3875 5.89024 37.0976 9.04878 37.0976 13.8008C37.0976 17.9268 38.982 21 42.1067 21ZM39.2205 12.6057C39.2205 9.1626 40.5562 6.68699 42.6076 6.68699C44.6827 6.68699 45.7561 8.87805 45.7561 10.9553V16.6179C45.3983 18.2683 44.3249 19.6057 42.9892 19.6057C40.6278 19.6057 39.2205 16.6179 39.2205 12.6057Z" fill="#EFECE4"/>
<path d="M62.4005 0.426831V0.825204C64.0463 1.02439 64.4757 1.67886 63.9271 2.9309L60.5162 10.8984L56.7713 2.9309C56.175 1.67886 56.7713 1.02439 58.4171 0.825204V0.426831H51.5715V0.825204C53.2173 1.02439 53.6705 1.67886 54.3145 3.07317L58.6795 12.2642V17.8699C58.6795 19.4919 58.2025 20.0041 56.5566 20.1463V20.5732H62.973V20.1463C61.3271 20.0041 60.8501 19.4919 60.8501 17.8699V11.9228L64.6665 2.98781C65.239 1.65041 65.883 1.02439 67.5288 0.825204V0.426831H62.4005Z" fill="#EFECE4"/>
<path d="M68.5636 21C70.1617 21 71.5213 19.748 72.213 17.4715V18.5528C72.213 20.2033 73.1671 21 74.0735 21C74.5983 21 75.5285 20.6585 76.1487 18.8943L75.8625 18.752C75.5524 19.4065 75.2185 19.6911 74.9084 19.6911C74.479 19.6911 74.1928 19.2642 74.1928 18.5528V11.0122C74.1928 7.85366 72.5947 5.89024 69.9947 5.89024C66.7508 5.89024 65.3196 8.28049 65.2958 10.0163C65.2958 11.1829 65.9637 11.5528 66.5838 11.3537C67.0847 11.1829 67.4187 10.6423 67.204 9.58943C66.9416 8.3374 67.5856 6.68699 69.4938 6.68699C71.1874 6.68699 72.213 8.30894 72.213 10.8699V12.1789L70.2094 12.4065C66.7985 12.8049 65.2958 14.4268 65.2958 17.3008C65.2958 19.4919 66.7508 21 68.5636 21ZM67.3471 16.6179C67.3471 14.6829 68.3251 13.5447 70.3764 13.2317L72.213 12.9472V16.7317C71.5929 18.3537 70.6865 19.378 69.5654 19.378C68.3251 19.378 67.3471 18.2114 67.3471 16.6179Z" fill="#EFECE4"/>
<path d="M82.9804 5.89024C81.6447 5.89024 80.3566 7.17073 79.8796 9.61789V5.89024H79.5456L76.254 7.22764V7.62602C77.4466 7.36992 77.8998 7.65447 77.8998 9.19106V18.3821C77.8998 19.4919 77.4943 19.9756 76.254 20.1748V20.5732H82.2171V20.1748C80.619 19.9756 79.8796 19.6911 79.8796 18.3821V11.7805C79.8796 9.47561 80.9529 7.73984 82.1694 7.73984C83.0758 7.73984 83.0758 8.67886 83.9345 8.67886C84.4593 8.67886 84.8409 8.13821 84.8409 7.42683C84.8409 6.4878 84.1253 5.89024 82.9804 5.89024Z" fill="#EFECE4"/>
<path d="M89.4456 21C91.2822 21 92.6895 19.5203 93.095 17.4431V18.7805C93.095 20.061 93.906 21 94.9555 21C95.4803 21 96.3867 20.6585 97.0307 18.8943L96.7445 18.752C96.4344 19.4065 96.1004 19.6911 95.7904 19.6911C95.361 19.6911 95.0748 19.2642 95.0748 18.5528V0H94.7408L91.4253 1.3374V1.73577C92.618 1.50813 93.095 1.79268 93.095 3.30081V7.36992C92.4033 6.45935 91.2584 5.89024 90.0657 5.89024C86.7264 5.89024 84.4365 9.04878 84.4365 13.8008C84.4365 17.9268 86.3209 21 89.4456 21ZM86.5594 12.6057C86.5594 9.1626 87.8952 6.68699 89.9465 6.68699C92.0217 6.68699 93.095 8.87805 93.095 10.9553V16.6179C92.7372 18.2683 91.6639 19.6057 90.3281 19.6057C87.9667 19.6057 86.5594 16.6179 86.5594 12.6057Z" fill="#EFECE4"/>
<path d="M101.897 20.9715C104.473 20.9715 106 19.122 106 16.8171C106 11.1545 99.1066 12.7764 99.1066 9.04878C99.1066 7.62602 100.085 6.68699 101.373 6.68699C103.066 6.68699 104.473 8.05285 105.284 10.3008H105.618L105.022 5.89024H104.688C104.664 8.13821 103.591 5.89024 101.277 5.89024C99.1305 5.89024 97.5085 7.45528 97.5085 9.84553C97.5085 15.0813 104.402 13.4878 104.402 17.6138C104.402 19.1789 103.329 20.1748 101.874 20.1748C100.204 20.1748 98.5342 18.752 97.7232 16.1911H97.3892L98.0094 21H98.3433C98.4864 18.6951 99.4405 20.9715 101.897 20.9715Z" fill="#EFECE4"/>
</svg>
