<svg height="25" viewBox="0 0 207 25" width="207" xmlns="http://www.w3.org/2000/svg"><path d="m65.9363784 33.4206349v-.468c-1.476-.036-2.412-.216-2.808-.576-.396-.396-.576-1.368-.576-2.916v-7.704h12.312v7.596c0 1.476-.216 2.448-.648 2.916-.432.432-1.332.648-2.736.684v.468h9v-.468c-1.476-.036-2.412-.216-2.808-.612s-.576-1.404-.576-2.988v-15.804c0-1.44.216-2.376.648-2.808s1.332-.648 2.736-.684v-.46799998h-9v.46799998c1.404.036 2.304.252 2.736.648s.648 1.368.648 2.844v7.272h-12.312v-7.272c0-1.404.216-2.34.648-2.808s1.332-.684 2.736-.684v-.46799998h-9v.46799998c1.404 0 2.34.216 2.736.648.432.432.648 1.368.648 2.844v15.912c0 1.44-.216 2.376-.648 2.808s-1.332.648-2.736.684v.468zm22.463027 0v-.468c-1.728-.108-2.52-.252-2.664-1.476 0-.468.252-1.332.792-2.592l1.44-3.636h9.864l1.296 3.168c.612 1.548.9359996 2.52.9359996 2.916 0 1.188-.6839996 1.512-2.5199996 1.62v.468h8.2439996v-.468c-1.116-.108-1.98-.504-2.592-1.188-.396-.432-.972-1.512-1.656-3.276l-7.9559996-19.43999998h-.288l-8.136 20.19599998c-1.116 2.628-1.872 3.528-3.708 3.708v.468zm9.072-9.036h-9.144l4.5-11.484zm18.3950266 9.036v-.468c-1.692 0-2.484-.144-2.952-.864-.3888-.648-.42768-1.12104-.431568-2.495124l-.000432-7.440876h3.384l8.064 11.268h5.436v-.468c-1.296-.108-2.376-.576-3.06-.9-.324-.18-.72-.504-1.188-1.008-.468-.54-.792-.9-.972-1.152l-1.08-1.548-4.68-6.552c3.42-.684 5.904-2.808 5.904-6.012 0-1.764-.9-6.19199998-8.244-6.19199998h-9.18v.46799998c1.548.036 2.484.252 2.844.72s.54 1.512.54 3.132v15.192c0 1.584-.18 2.628-.576 3.096-.36.468-1.296.72-2.808.756v.468zm-2.592-12.168h-.792v-10.512c.972-.216 2.088-.324 3.312-.324 3.456 0 5.652 2.16 5.652 5.508 0 3.564-2.736 5.328-8.172 5.328zm27.575027 12.168c3.852 0 6.84-1.152 9-3.42 2.196-2.304 3.276-5.184 3.276-8.604 0-7.884-4.824-11.80799998-13.572-11.80799998h-9.216v.46799998c1.332.036 2.232.252 2.7.684s.684 1.332.684 2.664v15.624c0 1.62-.216 2.7-.612 3.168s-1.332.72-2.772.756v.468zm-.576-.972c-1.512 0-2.952-.144-4.32-.468v-20.952c1.332-.36 2.7-.54 4.14-.54 3.024 0 5.472.936 7.308 2.844 1.836 1.872 2.772 4.608 2.772 8.172 0 3.312-.9 5.976-2.7 7.956-1.764 1.98-4.176 2.988-7.2 2.988zm28.187027.972v-.468c-1.512-.036-2.448-.216-2.844-.612-.36-.396-.54-1.368-.54-2.88v-6.12l6.228-9.828c1.332-2.16 2.7-3.42 4.824-3.456v-.46799998h-7.884v.46799998c1.656 0 2.484.54 2.484 1.656 0 .648-.396 1.62-1.224 2.88l-4.968 7.812-5.544-8.964c-.504-.792-.756-1.404-.756-1.872 0-1.188.972-1.512 2.808-1.512v-.46799998h-9.144v.46799998c1.404 0 2.556.684 3.42 2.016l7.524 11.556v5.832c0 1.44-.252 2.376-.72 2.808s-1.332.648-2.664.684v.468zm10.907028 0v-.468c-1.728-.108-2.52-.252-2.664-1.476 0-.468.252-1.332.792-2.592l1.44-3.636h9.864l1.296 3.168c.612 1.548.936 2.52.936 2.916 0 1.188-.684 1.512-2.52 1.62v.468h8.244v-.468c-1.116-.108-1.98-.504-2.592-1.188-.396-.432-.972-1.512-1.656-3.276l-7.956-19.43999998h-.288l-8.136 20.19599998c-1.116 2.628-1.872 3.528-3.708 3.708v.468zm9.072-9.036h-9.144l4.5-11.484zm18.395027 9.036v-.468c-1.692 0-2.484-.144-2.952-.864-.3888-.648-.42768-1.12104-.431568-2.495124l-.000432-7.440876h3.384l8.064 11.268h5.436v-.468c-1.296-.108-2.376-.576-3.06-.9-.324-.18-.72-.504-1.188-1.008-.468-.54-.792-.9-.972-1.152l-1.08-1.548-4.68-6.552c3.42-.684 5.904-2.808 5.904-6.012 0-1.764-.9-6.19199998-8.244-6.19199998h-9.18v.46799998c1.548.036 2.484.252 2.844.72s.54 1.512.54 3.132v15.192c0 1.584-.18 2.628-.576 3.096-.36.468-1.296.72-2.808.756v.468zm-2.592-12.168h-.792v-10.512c.972-.216 2.088-.324 3.312-.324 3.456 0 5.652 2.16 5.652 5.508 0 3.564-2.736 5.328-8.172 5.328zm27.575027 12.168c3.852 0 6.84-1.152 9-3.42 2.196-2.304 3.276-5.184 3.276-8.604 0-7.884-4.824-11.80799998-13.572-11.80799998h-9.216v.46799998c1.332.036 2.232.252 2.7.684s.684 1.332.684 2.664v15.624c0 1.62-.216 2.7-.612 3.168s-1.332.72-2.772.756v.468zm-.576-.972c-1.512 0-2.952-.144-4.32-.468v-20.952c1.332-.36 2.7-.54 4.14-.54 3.024 0 5.472.936 7.308 2.844 1.836 1.872 2.772 4.608 2.772 8.172 0 3.312-.9 5.976-2.7 7.956-1.764 1.98-4.176 2.988-7.2 2.988zm17.099027 1.512c.108-.864.252-1.332 1.08-1.332.504 0 1.368.216 2.556.684 1.188.432 2.448.648 3.78.648 2.196 0 3.924-.648 5.22-1.908 1.332-1.26 1.98-2.88 1.98-4.824.072-3.996-4.86-6.048-8.676-7.812-2.592-1.296-4.68-3.06-4.68-5.328 0-1.152.468-2.124 1.404-2.952.972-.828 2.088-1.22399998 3.384-1.22399998 1.908 0 3.456.71999998 4.644 2.19599998s1.872 3.204 2.016 5.184h.36v-8.24399998h-.36c-.18.9-.612 1.36799998-1.224 1.36799998-.252 0-.936-.216-2.088-.68399998-1.116-.468-2.196-.684-3.204-.684-1.872 0-3.492.576-4.824 1.72799998-1.332 1.152-1.98 2.628-1.98 4.428 0 2.34 1.44 4.248 3.348 5.4l3.132 1.728c2.268 1.152 4.284 1.944 5.544 3.564.648.792.972 1.692.972 2.7 0 2.844-2.16 4.428-5.292 4.428-1.152 0-2.484-.396-4.068-1.368-1.548-.972-2.772-3.096-3.024-5.868h-.468v8.172z" fill="#efece4" transform="translate(-56 -9)"/></svg>