<svg width="243" height="50" viewBox="0 0 243 50" fill="none" xmlns="http://www.w3.org/2000/svg">
<path d="M39.856 1.96477V1.01626H25.5008V1.96477C29.5273 2.37128 30.8694 3.59079 30.8694 6.97832V23.374H8.98656V6.97832C8.98656 3.59079 10.3287 2.37128 14.3552 1.96477V1.01626H0V1.96477C4.02645 2.37128 5.36859 3.59079 5.36859 6.97832V43.0217C5.36859 46.4092 4.02645 47.6287 0 48.0352V48.9837H14.3552V48.0352C10.3287 47.6287 8.98656 46.4092 8.98656 43.0217V25.271H30.8694V43.0217C30.8694 46.4092 29.5273 47.6287 25.5008 48.0352V48.9837H39.856V48.0352C35.8295 47.6287 34.4874 46.4092 34.4874 43.0217V6.97832C34.4874 3.59079 35.8295 2.37128 39.856 1.96477Z" fill="#EFECE4"/>
<path d="M50.5822 50C54.667 50 57.9349 46.748 59.6855 41.0569V45.0542C59.6855 48.2385 61.3778 50 63.4202 50C64.4705 50 66.2212 49.1192 67.6217 45.664L66.8631 45.3252C66.1628 46.8157 65.4042 47.4255 64.6456 47.4255C63.5952 47.4255 62.895 46.5447 62.895 44.9187V26.355C62.895 18.8347 59.2187 14.2276 53.4999 14.2276C45.7972 14.2276 42.7627 20.1219 42.7044 23.9837C42.7044 26.4905 44.1633 27.0325 45.2136 26.626C46.2057 26.2873 46.6725 25.1355 46.264 23.0352C45.6805 19.9864 47.3144 16.1247 52.3329 16.1247C56.8261 16.1247 59.6855 20.0542 59.6855 26.2873V29.1328L54.2002 29.6748C46.264 30.6233 42.7044 34.3496 42.7044 41.1924C42.7044 46.4092 46.264 50 50.5822 50ZM46.2057 40.0407C46.2057 35.1626 48.7732 32.4526 54.4336 31.6396L59.6855 30.8943V39.3631C57.9349 43.9702 55.2506 46.8835 52.0994 46.8835C48.8899 46.8835 46.2057 44.0379 46.2057 40.0407Z" fill="#EFECE4"/>
<path d="M82.7382 14.2276C79.5287 14.2276 76.7277 17.0732 75.5606 22.2222V14.2276H74.7436L68.0329 17.0732V18.0217C71.3007 17.2087 72.3511 17.7507 72.3511 21.5447V43.7669C72.3511 46.477 71.184 47.6965 68.0329 48.0352V48.9837H81.5711V48.0352C77.7781 47.6287 75.5606 47.019 75.5606 43.7669V26.9648C75.5606 21.5447 78.2449 17.4797 81.221 17.4797C83.4384 17.4797 83.2634 19.6477 85.189 19.6477C86.2394 19.6477 86.9397 18.5637 86.9397 17.4119C86.9397 15.6504 85.4808 14.2276 82.7382 14.2276Z" fill="#EFECE4"/>
<path d="M98.1943 50C102.746 50 106.364 46.4092 107.473 41.2602V45.2575C107.473 48.103 108.99 50 111.149 50C112.199 50 114.008 49.1192 115.35 45.664L114.65 45.3252C113.95 46.8157 113.133 47.4255 112.374 47.4255C111.382 47.4255 110.624 46.5447 110.624 44.9187V0H109.807L103.096 2.84553V3.79404C106.364 2.98103 107.414 3.59079 107.414 7.31708V18.4282C105.722 15.9214 102.571 14.2276 99.2447 14.2276C91.3668 14.2276 86.0566 21.6802 86.0566 32.8591C86.0566 42.8862 90.7833 50 98.1943 50ZM89.6162 30.149C89.6162 21.8157 93.1758 16.1247 98.6028 16.1247C104.555 16.1247 107.414 21.6802 107.414 26.6938V39.1599C106.481 43.7669 103.446 47.4932 99.6532 47.4932C93.526 47.4932 89.6162 40.3794 89.6162 30.149Z" fill="#EFECE4"/>
<path d="M141.912 1.01626V1.96477C145.939 2.37128 147.222 3.92954 145.88 6.97832L137.244 26.2873L127.849 6.97832C126.39 3.92954 127.907 2.37128 131.934 1.96477V1.01626H116.937V1.96477C120.963 2.37128 122.072 3.92954 123.647 7.11382L134.384 29.065V42.2764C134.384 46.748 132.926 47.7642 129.074 47.9675V48.9837H143.313V47.9675C139.461 47.7642 138.002 46.748 138.002 42.2764V28.7263L147.689 7.04607C149.09 3.86179 150.49 2.37128 154.517 1.96477V1.01626H141.912Z" fill="#EFECE4"/>
<path d="M157.366 50C161.451 50 164.719 46.748 166.469 41.0569V45.0542C166.469 48.2385 168.162 50 170.204 50C171.254 50 173.005 49.1192 174.405 45.664L173.647 45.3252C172.947 46.8157 172.188 47.4255 171.429 47.4255C170.379 47.4255 169.679 46.5447 169.679 44.9187V26.355C169.679 18.8347 166.002 14.2276 160.284 14.2276C152.581 14.2276 149.547 20.1219 149.488 23.9837C149.488 26.4905 150.947 27.0325 151.997 26.626C152.989 26.2873 153.456 25.1355 153.048 23.0352C152.464 19.9864 154.098 16.1247 159.117 16.1247C163.61 16.1247 166.469 20.0542 166.469 26.2873V29.1328L160.984 29.6748C153.048 30.6233 149.488 34.3496 149.488 41.1924C149.488 46.4092 153.048 50 157.366 50ZM152.989 40.0407C152.989 35.1626 155.557 32.4526 161.217 31.6396L166.469 30.8943V39.3631C164.719 43.9702 162.034 46.8835 158.883 46.8835C155.674 46.8835 152.989 44.0379 152.989 40.0407Z" fill="#EFECE4"/>
<path d="M189.522 14.2276C186.312 14.2276 183.511 17.0732 182.344 22.2222V14.2276H181.527L174.817 17.0732V18.0217C178.085 17.2087 179.135 17.7507 179.135 21.5447V43.7669C179.135 46.477 177.968 47.6965 174.817 48.0352V48.9837H188.355V48.0352C184.562 47.6287 182.344 47.019 182.344 43.7669V26.9648C182.344 21.5447 185.029 17.4797 188.005 17.4797C190.222 17.4797 190.047 19.6477 191.973 19.6477C193.023 19.6477 193.723 18.5637 193.723 17.4119C193.723 15.6504 192.265 14.2276 189.522 14.2276Z" fill="#EFECE4"/>
<path d="M204.978 50C209.53 50 213.148 46.4092 214.256 41.2602V45.2575C214.256 48.103 215.774 50 217.933 50C218.983 50 220.792 49.1192 222.134 45.664L221.434 45.3252C220.734 46.8157 219.917 47.4255 219.158 47.4255C218.166 47.4255 217.408 46.5447 217.408 44.9187V0H216.591L209.88 2.84553V3.79404C213.148 2.98103 214.198 3.59079 214.198 7.31708V18.4282C212.506 15.9214 209.355 14.2276 206.028 14.2276C198.151 14.2276 192.84 21.6802 192.84 32.8591C192.84 42.8862 197.567 50 204.978 50ZM196.4 30.149C196.4 21.8157 199.96 16.1247 205.387 16.1247C211.339 16.1247 214.198 21.6802 214.198 26.6938V39.1599C213.264 43.7669 210.23 47.4932 206.437 47.4932C200.31 47.4932 196.4 40.3794 196.4 30.149Z" fill="#EFECE4"/>
<path d="M233.488 49.9323C239.324 49.9323 243 45.7995 243 40.1761C243 27.5068 226.136 31.1653 226.136 22.0867C226.136 18.5637 228.703 16.1247 232.146 16.1247C236.348 16.1247 239.615 19.1057 241.308 24.187H242.125L240.783 14.2276H239.966C239.966 19.3089 237.456 14.2276 232.029 14.2276C227.011 14.2276 223.335 17.7507 223.335 23.1707C223.335 34.8238 240.199 31.5718 240.199 41.4634C240.199 45.393 237.398 48.0352 233.43 48.0352C229.52 48.0352 225.494 44.9864 223.801 39.2276H222.984L224.443 50H225.26C225.319 44.7832 228.003 49.9323 233.488 49.9323Z" fill="#EFECE4"/>
</svg>
