<svg width="106" height="21" viewBox="0 0 106 21" fill="none" xmlns="http://www.w3.org/2000/svg">
<path d="M16.7649 0.825204V0.426831H9.99531V0.825204C11.5628 1.02439 12.0398 1.53659 12.0398 2.9309V9.81707H4.72506V2.9309C4.72506 1.53659 5.20211 1.02439 6.76955 0.825204V0.426831H0V0.825204C1.56745 1.02439 2.0445 1.53659 2.0445 2.9309V18.0691C2.0445 19.435 1.56745 19.9472 0 20.1748V20.5732H6.76955V20.1748C5.20211 19.9472 4.72506 19.435 4.72506 18.0691V10.6138H12.0398V18.0691C12.0398 19.435 11.5628 19.9472 9.99531 20.1748V20.5732H16.7649V20.1748C15.1974 19.9472 14.7204 19.435 14.7204 18.0691V2.9309C14.7204 1.53659 15.1974 1.02439 16.7649 0.825204Z" fill="#1E1E1E"/>
<path d="M20.7358 21C22.2351 21 23.53 19.8902 24.166 17.7561V18.1829C24.166 20.1179 25.3473 21 26.2787 21C26.8693 21 27.9143 20.687 28.5958 18.6098L28.3232 18.4675C28.0052 19.1504 27.6871 19.435 27.3691 19.435C26.9602 19.435 26.6876 18.9797 26.6876 18.2114V10.9553C26.6876 7.79675 25.0974 5.77642 22.3714 5.77642C19.1684 5.77642 17.6464 8.0813 17.6009 9.95935C17.5782 11.2114 18.3279 11.7236 19.0775 11.4959C19.6682 11.2967 20.0771 10.6992 19.8499 9.47561C19.6 8.25203 20.1679 6.57317 21.849 6.57317C23.3255 6.57317 24.166 8.19512 24.166 10.6992V12.122L22.485 12.3211C19.0775 12.748 17.6009 14.3984 17.6009 17.3008C17.6009 19.4634 18.9639 21 20.7358 21ZM20.1679 16.4187C20.1679 14.5691 20.9857 13.4594 22.6895 13.1463L24.166 12.8902V16.8455C23.7117 18.1829 22.9848 19.0366 22.0761 19.0366C20.9857 19.0366 20.1679 17.9268 20.1679 16.4187Z" fill="#1E1E1E"/>
<path d="M35.7017 5.77642C34.3841 5.77642 33.0211 7.17073 32.5668 9.90244V5.77642H32.2487L28.5913 7.28455V7.68293C29.5909 7.54065 30.0452 7.85366 30.0452 9.30488V18.3821C30.0452 19.4634 29.7045 19.9472 28.5913 20.1748V20.5732H34.6794V20.1748C33.112 19.9187 32.5668 19.6341 32.5668 18.3821V12.2358C32.5668 9.87398 33.589 8.13821 34.7476 8.13821C35.5881 8.13821 35.6335 9.07724 36.5422 9.07724C37.1328 9.07724 37.5871 8.45122 37.5871 7.5122C37.5871 6.37398 36.8148 5.77642 35.7017 5.77642Z" fill="#1E1E1E"/>
<path d="M42.0103 21C43.7141 21 45.0089 19.5203 45.3724 17.5569V18.5244C45.3724 19.9187 46.3265 21 47.4623 21C48.0529 21 49.0979 20.687 49.7794 18.6098L49.5068 18.4675C49.1888 19.1504 48.8707 19.435 48.5527 19.435C48.1438 19.435 47.8712 18.9797 47.8712 18.2114V0H47.5532L43.8958 1.50813V1.9065C44.8953 1.73577 45.3496 2.04878 45.3496 3.52845V6.97155C44.7363 6.26016 43.7595 5.77642 42.76 5.77642C39.5115 5.77642 37.1944 8.96341 37.1944 13.7724C37.1944 17.813 38.9436 21 42.0103 21ZM39.8522 12.5488C39.8522 9.13415 41.0335 6.57317 42.7827 6.57317C44.4637 6.57317 45.3496 8.62195 45.3496 10.6992V16.7886C45.077 18.1829 44.1911 19.2358 43.1461 19.2358C41.0108 19.2358 39.8522 16.2764 39.8522 12.5488Z" fill="#1E1E1E"/>
<path d="M62.2616 0.426831V0.825204C63.8291 1.02439 64.1017 1.67886 63.6019 2.9309L60.467 10.7561L56.9687 2.9309C56.4235 1.67886 56.9687 1.02439 58.5361 0.825204V0.426831H51.3577V0.825204C52.9251 1.02439 53.334 1.67886 53.9701 3.13008L58.1045 12.3496V17.9837C58.1045 19.3211 57.741 19.9472 56.1054 20.1463V20.5732H62.8068V20.1463C61.1712 19.9472 60.7851 19.3211 60.7851 17.9837V11.7805L64.3061 3.01626C64.8286 1.67886 65.5328 1.02439 67.1003 0.825204V0.426831H62.2616Z" fill="#1E1E1E"/>
<path d="M67.9837 21C69.483 21 70.7779 19.8902 71.4139 17.7561V18.1829C71.4139 20.1179 72.5952 21 73.5266 21C74.1172 21 75.1622 20.687 75.8437 18.6098L75.5711 18.4675C75.2531 19.1504 74.935 19.435 74.617 19.435C74.2081 19.435 73.9355 18.9797 73.9355 18.2114V10.9553C73.9355 7.79675 72.3453 5.77642 69.6193 5.77642C66.4163 5.77642 64.8943 8.0813 64.8488 9.95935C64.8261 11.2114 65.5758 11.7236 66.3254 11.4959C66.9161 11.2967 67.325 10.6992 67.0978 9.47561C66.8479 8.25203 67.4158 6.57317 69.0968 6.57317C70.5734 6.57317 71.4139 8.19512 71.4139 10.6992V12.122L69.7329 12.3211C66.3254 12.748 64.8488 14.3984 64.8488 17.3008C64.8488 19.4634 66.2118 21 67.9837 21ZM67.4158 16.4187C67.4158 14.5691 68.2336 13.4594 69.9374 13.1463L71.4139 12.8902V16.8455C70.9596 18.1829 70.2327 19.0366 69.324 19.0366C68.2336 19.0366 67.4158 17.9268 67.4158 16.4187Z" fill="#1E1E1E"/>
<path d="M82.9496 5.77642C81.632 5.77642 80.269 7.17073 79.8147 9.90244V5.77642H79.4966L75.8392 7.28455V7.68293C76.8388 7.54065 77.2931 7.85366 77.2931 9.30488V18.3821C77.2931 19.4634 76.9524 19.9472 75.8392 20.1748V20.5732H81.9273V20.1748C80.3599 19.9187 79.8147 19.6341 79.8147 18.3821V12.2358C79.8147 9.87398 80.8369 8.13821 81.9955 8.13821C82.836 8.13821 82.8814 9.07724 83.7901 9.07724C84.3807 9.07724 84.835 8.45122 84.835 7.5122C84.835 6.37398 84.0627 5.77642 82.9496 5.77642Z" fill="#1E1E1E"/>
<path d="M89.2689 21C90.9726 21 92.2675 19.5203 92.6309 17.5569V18.5244C92.6309 19.9187 93.585 21 94.7208 21C95.3115 21 96.3564 20.687 97.0379 18.6098L96.7653 18.4675C96.4473 19.1504 96.1293 19.435 95.8112 19.435C95.4023 19.435 95.1297 18.9797 95.1297 18.2114V0H94.8117L91.1543 1.50813V1.9065C92.1539 1.73577 92.6082 2.04878 92.6082 3.52845V6.97155C91.9949 6.26016 91.018 5.77642 90.0185 5.77642C86.77 5.77642 84.4529 8.96341 84.4529 13.7724C84.4529 17.813 86.2021 21 89.2689 21ZM87.1108 12.5488C87.1108 9.13415 88.292 6.57317 90.0412 6.57317C91.7223 6.57317 92.6082 8.62195 92.6082 10.6992V16.7886C92.3356 18.1829 91.4496 19.2358 90.4047 19.2358C88.2693 19.2358 87.1108 16.2764 87.1108 12.5488Z" fill="#1E1E1E"/>
<path d="M101.888 20.9715C104.501 20.9715 106 19.0081 106 16.7602C106 10.7561 99.4122 12.4634 99.4122 8.79268C99.4122 7.45528 100.298 6.57317 101.411 6.57317C102.956 6.57317 104.387 8.05284 105.25 10.4431H105.568L105 5.77642H104.682C104.637 8.13821 103.547 5.77642 101.252 5.77642C99.1169 5.77642 97.4586 7.42683 97.4586 9.9309C97.4586 15.5366 104.024 13.7154 104.024 17.8415C104.024 19.2642 103.092 20.1748 101.843 20.1748C100.185 20.1748 98.5717 18.6098 97.6857 15.878H97.3677L98.0038 21H98.3218C98.5717 18.5813 99.3213 20.9715 101.888 20.9715Z" fill="#1E1E1E"/>
</svg>
