<svg width="94" height="21" viewBox="0 0 94 21" fill="none" xmlns="http://www.w3.org/2000/svg">
<path d="M15.2418 0.825204V0.426831H9.40268V0.825204C10.8839 1.02439 11.3562 1.53659 11.3562 2.9309V9.81707H3.88558V2.9309C3.88558 1.53659 4.33639 1.02439 5.81764 0.825204V0.426831H0V0.825204C1.48124 1.02439 1.93206 1.53659 1.93206 2.9309V18.0691C1.93206 19.4634 1.48124 19.9756 0 20.1748V20.5732H5.81764V20.1748C4.33639 19.9756 3.88558 19.4634 3.88558 18.0691V10.6138H11.3562V18.0691C11.3562 19.4634 10.8839 19.9756 9.40268 20.1748V20.5732H15.2418V20.1748C13.7605 19.9756 13.2883 19.4634 13.2883 18.0691V2.9309C13.2883 1.53659 13.7605 1.02439 15.2418 0.825204Z" fill="#EFECE4"/>
<path d="M18.1123 21C19.5506 21 20.7742 19.748 21.3968 17.4715V18.5528C21.3968 20.2033 22.2555 21 23.0712 21C23.5435 21 24.3807 20.6585 24.9389 18.8943L24.6813 18.752C24.4022 19.4065 24.1016 19.6911 23.8226 19.6911C23.4362 19.6911 23.1785 19.2642 23.1785 18.5528V11.0122C23.1785 7.85366 21.7402 5.89024 19.4003 5.89024C16.4808 5.89024 15.1927 8.28049 15.1712 10.0163C15.1712 11.1829 15.7723 11.5528 16.3305 11.3537C16.7813 11.1829 17.0818 10.6423 16.8886 9.58943C16.6525 8.3374 17.2321 6.68699 18.9495 6.68699C20.4737 6.68699 21.3968 8.30894 21.3968 10.8699V12.1789L19.5935 12.4065C16.5237 12.8049 15.1712 14.4268 15.1712 17.3008C15.1712 19.4919 16.4808 21 18.1123 21ZM17.0174 16.6179C17.0174 14.6829 17.8976 13.5447 19.7438 13.2317L21.3968 12.9472V16.7317C20.8386 18.3537 20.0229 19.378 19.0139 19.378C17.8976 19.378 17.0174 18.2114 17.0174 16.6179Z" fill="#EFECE4"/>
<path d="M31.0874 5.89024C29.8852 5.89024 28.726 7.17073 28.2967 9.61789V5.89024H27.9961L25.0336 7.22764V7.62602C26.107 7.36992 26.5149 7.65447 26.5149 9.19106V18.3821C26.5149 19.4919 26.1499 19.9756 25.0336 20.1748V20.5732H30.4005V20.1748C28.9621 19.9756 28.2967 19.6911 28.2967 18.3821V11.7805C28.2967 9.47561 29.2627 7.73984 30.3575 7.73984C31.1733 7.73984 31.1733 8.67886 31.9461 8.67886C32.4184 8.67886 32.7619 8.13821 32.7619 7.42683C32.7619 6.4878 32.1178 5.89024 31.0874 5.89024Z" fill="#EFECE4"/>
<path d="M36.896 21C38.549 21 39.8155 19.5203 40.1805 17.4431V18.7805C40.1805 20.061 40.9104 21 41.8549 21C42.3272 21 43.143 20.6585 43.7226 18.8943L43.465 18.752C43.1859 19.4065 42.8854 19.6911 42.6063 19.6911C42.2199 19.6911 41.9623 19.2642 41.9623 18.5528V0H41.6617L38.6778 1.3374V1.73577C39.7511 1.50813 40.1805 1.79268 40.1805 3.30081V7.36992C39.5579 6.45935 38.5275 5.89024 37.4541 5.89024C34.4487 5.89024 32.3879 9.04878 32.3879 13.8008C32.3879 17.9268 34.0838 21 36.896 21ZM34.2984 12.6057C34.2984 9.1626 35.5006 6.68699 37.3468 6.68699C39.2145 6.68699 40.1805 8.87805 40.1805 10.9553V16.6179C39.8585 18.2683 38.8924 19.6057 37.6903 19.6057C35.565 19.6057 34.2984 16.6179 34.2984 12.6057Z" fill="#EFECE4"/>
<path d="M55.1605 0.426831V0.825204C56.6417 1.02439 57.0281 1.67886 56.5344 2.9309L53.4645 10.8984L50.0942 2.9309C49.5575 1.67886 50.0942 1.02439 51.5754 0.825204V0.426831H45.4143V0.825204C46.8956 1.02439 47.3034 1.67886 47.883 3.07317L51.8116 12.2642V17.8699C51.8116 19.4919 51.3822 20.0041 49.901 20.1463V20.5732H55.6757V20.1463C54.1944 20.0041 53.7651 19.4919 53.7651 17.8699V11.9228L57.1998 2.98781C57.7151 1.65041 58.2947 1.02439 59.7759 0.825204V0.426831H55.1605Z" fill="#EFECE4"/>
<path d="M59.7072 21C61.1456 21 62.3692 19.748 62.9917 17.4715V18.5528C62.9917 20.2033 63.8504 21 64.6662 21C65.1385 21 65.9757 20.6585 66.5338 18.8943L66.2762 18.752C65.9972 19.4065 65.6966 19.6911 65.4175 19.6911C65.0311 19.6911 64.7735 19.2642 64.7735 18.5528V11.0122C64.7735 7.85366 63.3352 5.89024 60.9953 5.89024C58.0757 5.89024 56.7877 8.28049 56.7662 10.0163C56.7662 11.1829 57.3673 11.5528 57.9254 11.3537C58.3763 11.1829 58.6768 10.6423 58.4836 9.58943C58.2475 8.3374 58.8271 6.68699 60.5445 6.68699C62.0686 6.68699 62.9917 8.30894 62.9917 10.8699V12.1789L61.1885 12.4065C58.1187 12.8049 56.7662 14.4268 56.7662 17.3008C56.7662 19.4919 58.0757 21 59.7072 21ZM58.6124 16.6179C58.6124 14.6829 59.4926 13.5447 61.3388 13.2317L62.9917 12.9472V16.7317C62.4336 18.3537 61.6178 19.378 60.6089 19.378C59.4926 19.378 58.6124 18.2114 58.6124 16.6179Z" fill="#EFECE4"/>
<path d="M72.6824 5.89024C71.4802 5.89024 70.321 7.17073 69.8916 9.61789V5.89024H69.5911L66.6286 7.22764V7.62602C67.702 7.36992 68.1098 7.65447 68.1098 9.19106V18.3821C68.1098 19.4919 67.7449 19.9756 66.6286 20.1748V20.5732H71.9954V20.1748C70.5571 19.9756 69.8916 19.6911 69.8916 18.3821V11.7805C69.8916 9.47561 70.8577 7.73984 71.9525 7.73984C72.7682 7.73984 72.7682 8.67886 73.5411 8.67886C74.0133 8.67886 74.3568 8.13821 74.3568 7.42683C74.3568 6.4878 73.7128 5.89024 72.6824 5.89024Z" fill="#EFECE4"/>
<path d="M78.501 21C80.154 21 81.4206 19.5203 81.7855 17.4431V18.7805C81.7855 20.061 82.5154 21 83.46 21C83.9322 21 84.748 20.6585 85.3276 18.8943L85.07 18.752C84.7909 19.4065 84.4904 19.6911 84.2113 19.6911C83.8249 19.6911 83.5673 19.2642 83.5673 18.5528V0H83.2668L80.2828 1.3374V1.73577C81.3562 1.50813 81.7855 1.79268 81.7855 3.30081V7.36992C81.163 6.45935 80.1325 5.89024 79.0592 5.89024C76.0537 5.89024 73.9929 9.04878 73.9929 13.8008C73.9929 17.9268 75.6888 21 78.501 21ZM75.9035 12.6057C75.9035 9.1626 77.1056 6.68699 78.9518 6.68699C80.8195 6.68699 81.7855 8.87805 81.7855 10.9553V16.6179C81.4635 18.2683 80.4975 19.6057 79.2953 19.6057C77.17 19.6057 75.9035 16.6179 75.9035 12.6057Z" fill="#EFECE4"/>
<path d="M89.7076 20.9715C92.0261 20.9715 93.4 19.122 93.4 16.8171C93.4 11.1545 87.1959 12.7764 87.1959 9.04878C87.1959 7.62602 88.0761 6.68699 89.2353 6.68699C90.7595 6.68699 92.0261 8.05285 92.756 10.3008H93.0565L92.5198 5.89024H92.2193C92.1978 8.13821 91.2318 5.89024 89.1495 5.89024C87.2174 5.89024 85.7576 7.45528 85.7576 9.84553C85.7576 15.0813 91.9617 13.4878 91.9617 17.6138C91.9617 19.1789 90.9957 20.1748 89.6862 20.1748C88.1834 20.1748 86.6807 18.752 85.9508 16.1911H85.6503L86.2085 21H86.509C86.6378 18.6951 87.4965 20.9715 89.7076 20.9715Z" fill="#EFECE4"/>
</svg>
