<svg width="882" height="184" viewBox="0 0 882 184" fill="none" xmlns="http://www.w3.org/2000/svg">
<path d="M144.662 7.23036V3.73985H92.5585V7.23036C107.173 8.72629 112.045 13.2141 112.045 25.6802V86.0163H32.6179V25.6802C32.6179 13.2141 37.4894 8.72629 52.1039 7.23036V3.73985H0V7.23036C14.6145 8.72629 19.486 13.2141 19.486 25.6802V158.32C19.486 170.786 14.6145 175.274 0 176.77V180.26H52.1039V176.77C37.4894 175.274 32.6179 170.786 32.6179 158.32V92.9973H112.045V158.32C112.045 170.786 107.173 175.274 92.5585 176.77V180.26H144.662V176.77C130.048 175.274 125.176 170.786 125.176 158.32V25.6802C125.176 13.2141 130.048 8.72629 144.662 7.23036Z" fill="#EFECE4"/>
<path d="M183.595 184C198.421 184 210.282 172.033 216.636 151.089V165.799C216.636 177.518 222.779 184 230.192 184C234.004 184 240.358 180.759 245.442 168.043L242.688 166.797C240.147 172.282 237.393 174.526 234.64 174.526C230.827 174.526 228.285 171.285 228.285 165.301V96.9864C228.285 69.3117 214.942 52.3577 194.185 52.3577C166.227 52.3577 155.213 74.0488 155.001 88.2602C155.001 97.4851 160.296 99.4797 164.109 97.9837C167.709 96.7371 169.404 92.4986 167.921 84.7696C165.803 73.5501 171.734 59.3388 189.949 59.3388C206.258 59.3388 216.636 73.7995 216.636 96.7371V107.209L196.727 109.203C167.921 112.694 155.001 126.407 155.001 151.588C155.001 170.786 167.921 184 183.595 184ZM167.709 147.35C167.709 129.398 177.029 119.425 197.574 116.434L216.636 113.691V144.856C210.282 161.81 200.539 172.531 189.102 172.531C177.452 172.531 167.709 162.06 167.709 147.35Z" fill="#EFECE4"/>
<path d="M300.309 52.3577C288.66 52.3577 278.493 62.8293 274.257 81.7778V52.3577H271.292L246.934 62.8293V66.3198C258.795 63.3279 262.608 65.3225 262.608 79.2845V161.062C262.608 171.035 258.372 175.523 246.934 176.77V180.26H296.073V176.77C282.306 175.274 274.257 173.03 274.257 161.062V99.2304C274.257 79.2846 284 64.3252 294.802 64.3252C302.851 64.3252 302.215 72.3035 309.205 72.3035C313.017 72.3035 315.559 68.3144 315.559 64.0759C315.559 57.5935 310.264 52.3577 300.309 52.3577Z" fill="#EFECE4"/>
<path d="M356.409 184C372.93 184 386.062 170.786 390.086 151.837V166.547C390.086 177.019 395.593 184 403.43 184C407.242 184 413.808 180.759 418.679 168.043L416.138 166.797C413.596 172.282 410.631 174.526 407.877 174.526C404.277 174.526 401.523 171.285 401.523 165.301V0H398.558L374.201 10.4715V13.9621C386.062 10.9702 389.874 13.2141 389.874 26.9268V67.8157C383.732 58.5908 372.294 52.3577 360.221 52.3577C331.628 52.3577 312.354 79.7832 312.354 120.921C312.354 157.821 329.51 184 356.409 184ZM325.274 110.949C325.274 80.2818 338.194 59.3388 357.892 59.3388C379.496 59.3388 389.874 79.7832 389.874 98.2331V144.108C386.485 161.062 375.471 174.775 361.704 174.775C339.465 174.775 325.274 148.596 325.274 110.949Z" fill="#EFECE4"/>
<path d="M515.089 3.73985V7.23036C529.703 8.72629 534.363 14.4607 529.491 25.6802L498.144 96.7371L464.044 25.6802C458.749 14.4607 464.255 8.72629 478.87 7.23036V3.73985H424.436V7.23036C439.051 8.72629 443.075 14.4607 448.794 26.1789L487.766 106.959V155.577C487.766 172.033 482.471 175.772 468.492 176.52V180.26H520.172V176.52C506.193 175.772 500.898 172.033 500.898 155.577V105.713L536.057 25.9295C541.14 14.2114 546.224 8.72629 560.838 7.23036V3.73985H515.089Z" fill="#EFECE4"/>
<path d="M571.18 184C586.007 184 597.868 172.033 604.222 151.089V165.799C604.222 177.518 610.364 184 617.777 184C621.59 184 627.944 180.759 633.027 168.043L630.274 166.797C627.732 172.282 624.979 174.526 622.225 174.526C618.413 174.526 615.871 171.285 615.871 165.301V96.9864C615.871 69.3117 602.527 52.3577 581.771 52.3577C553.812 52.3577 542.799 74.0488 542.587 88.2602C542.587 97.4851 547.882 99.4797 551.694 97.9837C555.295 96.7371 556.989 92.4986 555.507 84.7696C553.389 73.5501 559.319 59.3388 577.534 59.3388C593.843 59.3388 604.222 73.7995 604.222 96.7371V107.209L584.312 109.203C555.507 112.694 542.587 126.407 542.587 151.588C542.587 170.786 555.507 184 571.18 184ZM555.295 147.35C555.295 129.398 564.614 119.425 585.159 116.434L604.222 113.691V144.856C597.868 161.81 588.125 172.531 576.687 172.531C565.038 172.531 555.295 162.06 555.295 147.35Z" fill="#EFECE4"/>
<path d="M687.895 52.3577C676.245 52.3577 666.079 62.8293 661.843 81.7778V52.3577H658.877L634.52 62.8293V66.3198C646.381 63.3279 650.193 65.3225 650.193 79.2845V161.062C650.193 171.035 645.957 175.523 634.52 176.77V180.26H683.658V176.77C669.891 175.274 661.843 173.03 661.843 161.062V99.2304C661.843 79.2846 671.586 64.3252 682.388 64.3252C690.436 64.3252 689.801 72.3035 696.79 72.3035C700.603 72.3035 703.144 68.3144 703.144 64.0759C703.144 57.5935 697.849 52.3577 687.895 52.3577Z" fill="#EFECE4"/>
<path d="M743.995 184C760.515 184 773.647 170.786 777.671 151.837V166.547C777.671 177.019 783.178 184 791.015 184C794.828 184 801.394 180.759 806.265 168.043L803.723 166.797C801.182 172.282 798.216 174.526 795.463 174.526C791.862 174.526 789.109 171.285 789.109 165.301V0H786.144L761.786 10.4715V13.9621C773.647 10.9702 777.46 13.2141 777.46 26.9268V67.8157C771.317 58.5908 759.88 52.3577 747.807 52.3577C719.213 52.3577 699.939 79.7832 699.939 120.921C699.939 157.821 717.095 184 743.995 184ZM712.859 110.949C712.859 80.2818 725.779 59.3388 745.477 59.3388C767.081 59.3388 777.46 79.7832 777.46 98.2331V144.108C774.071 161.062 763.057 174.775 749.29 174.775C727.05 174.775 712.859 148.596 712.859 110.949Z" fill="#EFECE4"/>
<path d="M847.476 183.751C868.656 183.751 882 168.542 882 147.848C882 101.225 820.789 114.688 820.789 81.2791C820.789 68.3144 830.108 59.3388 842.604 59.3388C857.854 59.3388 869.715 70.3089 875.858 89.0081H878.823L873.951 52.3577H870.986C870.986 71.0569 861.879 52.3577 842.181 52.3577C823.966 52.3577 810.622 65.3225 810.622 85.2683C810.622 128.152 871.833 116.184 871.833 152.585C871.833 167.046 861.667 176.77 847.264 176.77C833.073 176.77 818.459 165.55 812.316 144.358H809.351L814.646 184H817.612C817.823 164.802 827.566 183.751 847.476 183.751Z" fill="#EFECE4"/>
</svg>
