<svg width="243" height="49" viewBox="0 0 243 49" fill="none" xmlns="http://www.w3.org/2000/svg">
<path d="M38.8234 1.92548V0.995938H23.9502V1.92548C27.7232 2.39024 28.9262 3.58537 28.9262 6.83876V22.9065H9.89723V6.83876C9.89723 3.58537 11.0455 2.39024 14.8185 1.92548V0.995938H0V1.92548C3.77298 2.39024 4.92128 3.58537 4.92128 6.83876V42.1612C4.92128 45.4146 3.77298 46.6098 0 47.0745V48.0041H14.8185V47.0745C11.0455 46.6098 9.89723 45.4146 9.89723 42.1612V24.7656H28.9262V42.1612C28.9262 45.4146 27.7232 46.6098 23.9502 47.0745V48.0041H38.8234V47.0745C35.0504 46.6098 33.8474 45.4146 33.8474 42.1612V6.83876C33.8474 3.58537 35.0504 2.39024 38.8234 1.92548Z" fill="#1E1E1E"/>
<path d="M48.6822 49C52.3458 49 55.4626 46.0786 57.0484 40.7669V43.29C57.0484 47.1409 59.2356 49 61.3135 49C62.5164 49 64.649 48.2033 66.0707 44.0867L65.4145 43.7547C64.7037 45.2818 63.9381 45.9458 63.2273 45.9458C62.243 45.9458 61.5869 44.9499 61.5869 43.29V25.6951C61.5869 18.3252 57.9233 13.7439 51.963 13.7439C44.5264 13.7439 41.2456 19.3211 41.1909 23.3713C41.1909 26.0935 42.722 26.9566 44.1437 26.4919C45.292 26.0935 46.0575 24.832 45.5654 22.3753C44.9639 19.4539 46.4403 15.603 50.8147 15.603C54.6971 15.603 57.0484 19.3875 57.0484 25.3631V28.4173L52.4552 28.9485C44.6358 29.878 41.1909 33.6626 41.1909 40.3686C41.1909 45.481 44.5264 49 48.6822 49ZM45.8935 38.7751C45.8935 34.2602 48.1354 31.6043 52.8379 30.874L57.0484 30.21V39.0406C55.6267 42.8252 53.5488 45.2154 50.9788 45.2154C48.1354 45.2154 45.8935 42.4932 45.8935 38.7751Z" fill="#1E1E1E"/>
<path d="M81.7321 13.7439C78.6699 13.7439 75.7172 16.7317 74.6236 22.4417V13.7439H73.858L66.3121 16.8645V17.794C69.0461 17.1965 70.085 17.8604 70.085 21.4458V42.8916C70.085 45.481 69.1555 46.6098 66.3121 47.0745V48.0041H79.9823V47.0745C76.3187 46.6098 74.6236 45.9458 74.6236 42.8916V27.4878C74.6236 22.1098 77.0842 18.0596 79.8729 18.0596C81.9508 18.0596 81.9508 20.2507 83.9193 20.2507C85.1223 20.2507 85.9972 18.9892 85.9972 17.3293C85.9972 15.1382 84.3568 13.7439 81.7321 13.7439Z" fill="#1E1E1E"/>
<path d="M96.5275 49C100.738 49 103.964 45.5474 104.894 40.7005V43.8211C104.894 46.8089 106.753 49 109.159 49C110.362 49 112.44 48.2033 113.916 44.0867L113.26 43.7547C112.549 45.2818 111.783 45.9458 111.073 45.9458C110.088 45.9458 109.432 44.9499 109.432 43.29V0H108.667L101.066 3.1206V4.05013C103.8 3.51897 104.894 4.18293 104.894 7.7019V17.1965C103.308 15.0718 100.683 13.7439 97.9492 13.7439C90.2939 13.7439 85.0445 21.1138 85.0445 32.2019C85.0445 41.8293 89.3643 49 96.5275 49ZM89.9111 29.4133C89.9111 21.3794 92.9732 15.603 97.6758 15.603C102.433 15.603 104.894 20.7154 104.894 25.5623V38.7751C104.073 42.626 101.613 45.7466 98.5507 45.7466C93.1373 45.7466 89.9111 38.7751 89.9111 29.4133Z" fill="#1E1E1E"/>
<path d="M143.05 0.995938V1.92548C146.823 2.39024 147.807 3.91734 146.55 6.83876L138.73 25.4295L130.146 6.83876C128.779 3.91734 130.146 2.39024 133.919 1.92548V0.995938H118.225V1.92548C121.998 2.39024 123.037 3.91734 124.513 7.17073L134.52 28.6165V41.6965C134.52 45.481 133.426 46.6761 129.653 47.0081V48.0041H144.363V47.0081C140.59 46.6761 139.496 45.481 139.496 41.6965V27.8198L148.245 6.97155C149.557 3.85095 151.034 2.39024 154.807 1.92548V0.995938H143.05Z" fill="#1E1E1E"/>
<path d="M157.179 49C160.842 49 163.959 46.0786 165.545 40.7669V43.29C165.545 47.1409 167.732 49 169.81 49C171.013 49 173.146 48.2033 174.567 44.0867L173.911 43.7547C173.2 45.2818 172.435 45.9458 171.724 45.9458C170.74 45.9458 170.083 44.9499 170.083 43.29V25.6951C170.083 18.3252 166.42 13.7439 160.46 13.7439C153.023 13.7439 149.742 19.3211 149.688 23.3713C149.688 26.0935 151.219 26.9566 152.64 26.4919C153.789 26.0935 154.554 24.832 154.062 22.3753C153.461 19.4539 154.937 15.603 159.311 15.603C163.194 15.603 165.545 19.3875 165.545 25.3631V28.4173L160.952 28.9485C153.132 29.878 149.688 33.6626 149.688 40.3686C149.688 45.481 153.023 49 157.179 49ZM154.39 38.7751C154.39 34.2602 156.632 31.6043 161.335 30.874L165.545 30.21V39.0406C164.123 42.8252 162.045 45.2154 159.475 45.2154C156.632 45.2154 154.39 42.4932 154.39 38.7751Z" fill="#1E1E1E"/>
<path d="M190.229 13.7439C187.167 13.7439 184.214 16.7317 183.12 22.4417V13.7439H182.355L174.809 16.8645V17.794C177.543 17.1965 178.582 17.8604 178.582 21.4458V42.8916C178.582 45.481 177.652 46.6098 174.809 47.0745V48.0041H188.479V47.0745C184.815 46.6098 183.12 45.9458 183.12 42.8916V27.4878C183.12 22.1098 185.581 18.0596 188.37 18.0596C190.447 18.0596 190.447 20.2507 192.416 20.2507C193.619 20.2507 194.494 18.9892 194.494 17.3293C194.494 15.1382 192.853 13.7439 190.229 13.7439Z" fill="#1E1E1E"/>
<path d="M205.05 49C209.26 49 212.486 45.5474 213.416 40.7005V43.8211C213.416 46.8089 215.275 49 217.681 49C218.884 49 220.962 48.2033 222.438 44.0867L221.782 43.7547C221.071 45.2818 220.306 45.9458 219.595 45.9458C218.611 45.9458 217.954 44.9499 217.954 43.29V0H217.189L209.588 3.1206V4.05013C212.322 3.51897 213.416 4.18293 213.416 7.7019V17.1965C211.83 15.0718 209.206 13.7439 206.471 13.7439C198.816 13.7439 193.567 21.1138 193.567 32.2019C193.567 41.8293 197.887 49 205.05 49ZM198.433 29.4133C198.433 21.3794 201.496 15.603 206.198 15.603C210.955 15.603 213.416 20.7154 213.416 25.5623V38.7751C212.596 42.626 210.135 45.7466 207.073 45.7466C201.66 45.7466 198.433 38.7751 198.433 29.4133Z" fill="#1E1E1E"/>
<path d="M233.595 48.9336C239.5 48.9336 243 44.6179 243 39.2398C243 26.0271 227.197 29.8117 227.197 21.1138C227.197 17.794 229.439 15.603 232.392 15.603C236.274 15.603 239.5 18.79 241.36 24.0352H242.125L240.758 13.7439H239.993C239.938 18.9892 237.477 13.7439 232.173 13.7439C227.252 13.7439 223.534 17.3957 223.534 22.9729C223.534 35.1897 239.336 31.4715 239.336 41.0989C239.336 44.7507 236.876 47.0745 233.54 47.0745C229.713 47.0745 225.885 43.7547 224.026 37.7791H223.26L224.682 49H225.447C225.776 43.622 227.963 48.9336 233.595 48.9336Z" fill="#1E1E1E"/>
</svg>
