<svg fill="none" height="49" viewBox="0 0 249 49" width="249" xmlns="http://www.w3.org/2000/svg"><g fill="rgb(239, 236, 228)"><path d="m40.4211 1.92548v-.929542h-15.4853v.929542c3.9283.46476 5.1808 1.65989 5.1808 4.91328v16.06774h-19.8121v-16.06774c0-3.25339 1.1956-4.44852 5.1238-4.91328v-.929542h-15.4283v.929542c3.92825.46476 5.1238 1.65989 5.1238 4.91328v35.32244c0 3.2534-1.19555 4.4486-5.1238 4.9133v.9296h15.4283v-.9296c-3.9282-.4647-5.1238-1.6599-5.1238-4.9133v-17.3956h19.8121v17.3956c0 3.2534-1.2525 4.4486-5.1808 4.9133v.9296h15.4853v-.9296c-3.9283-.4647-5.1808-1.6599-5.1808-4.9133v-35.32244c0-3.25339 1.2525-4.44852 5.1808-4.91328z"/><path d="m49.6856 49c3.8144 0 7.0594-2.9214 8.7104-8.2331v2.5231c0 3.8509 2.2773 5.71 4.4407 5.71 1.2524 0 3.4728-.7967 4.953-4.9133l-.6832-.332c-.7401 1.5271-1.5371 2.1911-2.2773 2.1911-1.0247 0-1.7079-.9959-1.7079-2.6558v-17.5949c0-7.3699-3.8144-11.9512-10.0199-11.9512-7.7426 0-11.1585 5.5772-11.2154 9.6274 0 2.7222 1.5941 3.5853 3.0743 3.1206 1.1955-.3984 1.9926-1.6599 1.4802-4.1166-.6262-2.9214.9109-6.7723 5.4654-6.7723 4.0421 0 6.4901 3.7845 6.4901 9.7601v3.0542l-4.7822.5312c-8.1411.9295-11.7278 4.7141-11.7278 11.4201 0 5.1124 3.4728 8.6314 7.7996 8.6314zm-2.9035-10.2249c0-4.5149 2.3342-7.1708 7.2302-7.9011l4.3837-.664v8.8306c-1.4802 3.7846-3.6436 6.1748-6.3193 6.1748-2.9604 0-5.2946-2.7222-5.2946-6.4403z"/><path d="m84.0955 13.7439c-3.1881 0-6.2624 2.9878-7.401 8.6978v-8.6978h-.797l-7.8565 3.1206v.9295c2.8465-.5975 3.9282.0664 3.9282 3.6518v21.4458c0 2.5894-.9678 3.7182-3.9282 4.1829v.9296h14.2327v-.9296c-3.8143-.4647-5.5792-1.1287-5.5792-4.1829v-15.4038c0-5.378 2.5619-9.4282 5.4654-9.4282 2.1634 0 2.1634 2.1911 4.2129 2.1911 1.2525 0 2.1634-1.2615 2.1634-2.9214 0-2.1911-1.708-3.5854-4.4407-3.5854z"/><path d="m99.4998 49c4.3842 0 7.7422-3.4526 8.7102-8.2995v3.1206c0 2.9878 1.936 5.1789 4.441 5.1789 1.252 0 3.416-.7967 4.953-4.9133l-.683-.332c-.74 1.5271-1.537 2.1911-2.277 2.1911-1.025 0-1.708-.9959-1.708-2.6558v-43.29h-.797l-7.914 3.1206v.92953c2.847-.53116 3.985.1328 3.985 3.65177v9.4946c-1.651-2.1247-4.383-3.4526-7.23-3.4526-7.9703 0-13.4357 7.3699-13.4357 18.458 0 9.6274 4.4976 16.7981 11.9555 16.7981zm-6.8886-19.5867c0-8.0339 3.1881-13.8103 8.0838-13.8103 4.953 0 7.515 5.1124 7.515 9.9593v13.2128c-.854 3.8509-3.416 6.9715-6.604 6.9715-5.6359 0-8.9948-6.9715-8.9948-16.3333z"/><path d="m145.937.995938v.929542c3.928.46476 4.953 1.99186 3.644 4.91328l-8.141 18.59074-8.939-18.59074c-1.423-2.92142 0-4.44852 3.929-4.91328v-.929542h-16.34v.929542c3.929.46476 5.01 1.99186 6.547 5.24525l10.419 21.44577v13.08c0 3.7845-1.139 4.9796-5.067 5.3116v.996h15.314v-.996c-3.928-.332-5.066-1.5271-5.066-5.3116v-13.8767l9.109-20.84825c1.366-3.1206 2.903-4.58131 6.831-5.04607v-.929542z"/><path d="m158.647 49c3.814 0 7.06-2.9214 8.711-8.2331v2.5231c0 3.8509 2.277 5.71 4.44 5.71 1.253 0 3.473-.7967 4.953-4.9133l-.683-.332c-.74 1.5271-1.537 2.1911-2.277 2.1911-1.025 0-1.708-.9959-1.708-2.6558v-17.5949c0-7.3699-3.815-11.9512-10.02-11.9512-7.743 0-11.159 5.5772-11.215 9.6274 0 2.7222 1.594 3.5853 3.074 3.1206 1.195-.3984 1.992-1.6599 1.48-4.1166-.626-2.9214.911-6.7723 5.465-6.7723 4.043 0 6.491 3.7845 6.491 9.7601v3.0542l-4.783.5312c-8.141.9295-11.727 4.7141-11.727 11.4201 0 5.1124 3.472 8.6314 7.799 8.6314zm-2.903-10.2249c0-4.5149 2.334-7.1708 7.23-7.9011l4.384-.664v8.8306c-1.481 3.7846-3.644 6.1748-6.32 6.1748-2.96 0-5.294-2.7222-5.294-6.4403z"/><path d="m193.057 13.7439c-3.188 0-6.262 2.9878-7.401 8.6978v-8.6978h-.797l-7.857 3.1206v.9295c2.847-.5975 3.929.0664 3.929 3.6518v21.4458c0 2.5894-.968 3.7182-3.929 4.1829v.9296h14.233v-.9296c-3.814-.4647-5.579-1.1287-5.579-4.1829v-15.4038c0-5.378 2.562-9.4282 5.465-9.4282 2.164 0 2.164 2.1911 4.213 2.1911 1.253 0 2.164-1.2615 2.164-2.9214 0-2.1911-1.708-3.5854-4.441-3.5854z"/><path d="m209.488 49c4.384 0 7.743-3.4526 8.71-8.2995v3.1206c0 2.9878 1.936 5.1789 4.441 5.1789 1.253 0 3.416-.7967 4.953-4.9133l-.683-.332c-.74 1.5271-1.537 2.1911-2.277 2.1911-1.025 0-1.708-.9959-1.708-2.6558v-43.29h-.797l-7.914 3.1206v.92953c2.847-.53116 3.985.1328 3.985 3.65177v9.4946c-1.651-2.1247-4.383-3.4526-7.23-3.4526-7.97 0-13.435 7.3699-13.435 18.458 0 9.6274 4.497 16.7981 11.955 16.7981zm-6.889-19.5867c0-8.0339 3.189-13.8103 8.085-13.8103 4.953 0 7.514 5.1124 7.514 9.9593v13.2128c-.853 3.8509-3.415 6.9715-6.604 6.9715-5.636 0-8.995-6.9715-8.995-16.3333z"/><path d="m239.208 48.9336c6.148 0 9.792-4.3157 9.792-9.6938 0-13.2127-16.453-9.4281-16.453-18.126 0-3.3198 2.334-5.5108 5.408-5.5108 4.042 0 7.401 3.187 9.337 8.4322h.797l-1.423-10.2913h-.797c-.057 5.2453-2.619 0-8.141 0-5.124 0-8.995 3.6518-8.995 9.229 0 12.2168 16.453 8.4986 16.453 18.126 0 3.6518-2.562 5.9756-6.035 5.9756-3.985 0-7.97-3.3198-9.906-9.2954h-.797l1.48 11.2209h.797c.342-5.378 2.619-.0664 8.483-.0664z"/></g></svg>